<svg xmlns="http://www.w3.org/2000/svg" xmlns:xlink="http://www.w3.org/1999/xlink" width="500" zoomAndPan="magnify" viewBox="0 0 375 374.999991" height="500" preserveAspectRatio="xMidYMid meet" version="1.0"><defs><clipPath id="0b58f67ec9"><path d="M 146 163 L 176 163 L 176 187.671875 L 146 187.671875 Z M 146 163 " clip-rule="nonzero"/></clipPath><clipPath id="93ce2cc6e8"><path d="M 185 90.171875 L 214.675781 90.171875 L 214.675781 115 L 185 115 Z M 185 90.171875 " clip-rule="nonzero"/></clipPath><clipPath id="78d89b0da1"><path d="M 136 90.171875 L 166 90.171875 L 166 115 L 136 115 Z M 136 90.171875 " clip-rule="nonzero"/></clipPath><clipPath id="f9e6b61175"><path d="M 87.925781 90.171875 L 118 90.171875 L 118 115 L 87.925781 115 Z M 87.925781 90.171875 " clip-rule="nonzero"/></clipPath></defs><path fill="#ff0000" d="M 349.71875 224.769531 C 340.546875 218.417969 267.476562 186.167969 267.476562 186.167969 C 272.613281 184.753906 282.191406 176.589844 282.191406 176.589844 C 290.253906 170.039062 297.609375 165.300781 297.609375 165.300781 C 310.007812 156.835938 307.589844 144.539062 307.589844 144.539062 C 306.984375 139.800781 306.683594 132.242188 306.683594 132.242188 C 305.371094 122.464844 299.628906 115.511719 299.628906 115.511719 C 293.480469 108.152344 291.765625 101.503906 291.765625 101.503906 C 288.4375 90.71875 276.042969 77.714844 276.042969 77.714844 C 268.382812 69.753906 257.394531 68.140625 257.394531 68.140625 C 255.78125 67.738281 257.09375 66.125 257.09375 66.125 C 261.929688 61.691406 260.621094 57.757812 260.621094 57.757812 C 259.3125 54.9375 257.394531 56.75 257.394531 56.75 C 256.789062 58.0625 255.179688 59.574219 255.179688 59.574219 C 252.960938 59.171875 252.660156 57.335938 252.660156 57.335938 C 253.0625 52.667969 252.660156 52.519531 252.660156 52.519531 C 252.457031 48.6875 246.8125 42.238281 246.8125 42.238281 C 243.585938 38.808594 240.664062 38.808594 240.664062 38.808594 C 222.925781 37.5 215.46875 45.460938 215.46875 45.460938 C 212.441406 48.988281 202.867188 53.929688 202.867188 53.929688 C 196.519531 56.851562 197.828125 58.464844 197.828125 58.464844 C 198.734375 60.480469 200.046875 60.277344 200.046875 60.277344 L 211.132812 57.859375 C 212.542969 61.789062 215.566406 62.597656 215.566406 62.597656 C 216.980469 66.929688 220.203125 72.472656 220.203125 72.472656 C 218.589844 77.515625 215.367188 75.09375 215.367188 75.09375 C 212.441406 78.21875 213.550781 80.539062 213.550781 80.539062 C 214.558594 82.554688 214.359375 84.066406 214.359375 84.066406 C 214.558594 89.105469 221.917969 90.113281 221.917969 90.113281 L 228.367188 83.964844 C 230.28125 82.554688 234.011719 82.554688 234.011719 82.554688 C 233.710938 88.800781 235.726562 90.214844 235.726562 90.214844 C 232.300781 104.527344 212.542969 114.402344 212.542969 114.402344 C 208.109375 116.722656 200.953125 116.316406 200.953125 116.316406 C 195.105469 115.210938 191.578125 117.929688 191.578125 117.929688 L 169.808594 134.15625 C 163.761719 133.148438 150.054688 125.691406 150.054688 125.691406 C 123.242188 112.085938 100.867188 125.894531 100.867188 125.894531 C 102.480469 127.003906 107.015625 126.597656 107.015625 126.597656 C 114.777344 124.078125 124.050781 125.085938 124.050781 125.085938 C 150.457031 129.824219 162.953125 149.175781 162.953125 149.175781 L 132.515625 170.441406 C 91.292969 130.125 59.945312 163.691406 59.945312 163.691406 C 25.273438 201.183594 57.628906 235.050781 57.628906 235.050781 C 84.539062 260.046875 117.5 243.011719 117.5 243.011719 C 155.597656 216.804688 137.050781 179.210938 137.050781 179.210938 L 167.792969 157.339844 C 172.027344 166.714844 169.808594 179.210938 169.808594 179.210938 C 169.203125 187.273438 172.632812 191.507812 172.632812 191.507812 C 172.632812 197.757812 166.988281 220.234375 166.988281 220.234375 C 165.070312 235.050781 180.695312 242.304688 180.695312 242.304688 L 214.257812 255.105469 L 221.109375 251.476562 L 230.382812 263.070312 C 218.996094 279.800781 224.738281 302.476562 224.738281 302.476562 C 232.199219 321.425781 248.625 329.894531 248.625 329.894531 C 284.710938 342.492188 305.773438 310.945312 305.773438 310.945312 C 325.027344 279.800781 305.269531 255.914062 305.269531 255.914062 C 276.445312 227.589844 250.441406 244.925781 250.441406 244.925781 L 256.789062 230.011719 L 265.359375 229.605469 L 272.011719 234.847656 L 283.601562 229.707031 C 298.015625 231.320312 306.984375 229.101562 306.984375 229.101562 C 314.441406 225.472656 314.945312 220.433594 314.945312 220.433594 C 312.425781 216.402344 309 215.597656 309 215.597656 C 328.050781 217.210938 345.6875 225.878906 345.6875 225.878906 Z M 119.605469 224.324219 C 116.300781 221.230469 110.875 216.171875 106.632812 212.3125 C 106.976562 211.917969 107.289062 211.523438 107.589844 211.132812 C 110.089844 211.355469 113.539062 211.726562 117.296875 212.160156 L 124.675781 216.445312 C 122.566406 220.726562 120.523438 223.347656 120.523438 223.347656 C 120.21875 223.699219 119.917969 224.003906 119.605469 224.324219 Z M 107.417969 233.246094 C 105.121094 234.285156 102.863281 234.988281 100.667969 235.460938 L 100.667969 217.039062 C 100.695312 217.019531 100.738281 216.996094 100.765625 216.976562 L 105.324219 221.402344 Z M 105.949219 222.015625 L 113.707031 229.554688 C 111.773438 230.96875 109.828125 232.105469 107.894531 233.023438 Z M 62.679688 220.132812 C 61.398438 218.105469 60.402344 216.019531 59.65625 213.933594 L 78.523438 209.175781 C 78.816406 209.691406 79.117188 210.183594 79.429688 210.648438 L 75.621094 214.992188 Z M 74.894531 215.828125 L 66.679688 225.191406 C 65.238281 223.710938 64 222.160156 62.960938 220.566406 Z M 57.578125 197.011719 L 72.464844 199.84375 L 57.519531 203.097656 C 57.386719 200.859375 57.4375 198.796875 57.578125 197.011719 Z M 73.441406 184.332031 L 77.140625 189.683594 L 60.1875 186.335938 C 61.359375 183.707031 62.6875 181.386719 64.109375 179.332031 Z M 64.402344 178.917969 C 65.320312 177.628906 66.285156 176.460938 67.265625 175.382812 L 72.816406 183.425781 Z M 128.070312 207.199219 L 116.894531 203.683594 L 128.878906 202.949219 C 128.6875 204.417969 128.414062 205.832031 128.070312 207.199219 Z M 128.9375 202.445312 L 115.542969 203.269531 L 111.136719 201.890625 C 111.289062 200.085938 111.097656 198.925781 111.097656 198.925781 L 112.15625 198.140625 L 129.171875 198.160156 C 129.179688 199.613281 129.097656 201.042969 128.9375 202.445312 Z M 111.089844 202.394531 L 114.140625 203.351562 L 110.917969 203.550781 C 110.988281 203.140625 111.046875 202.757812 111.089844 202.394531 Z M 112.832031 197.625 L 120.804688 191.667969 L 128.332031 191.074219 C 128.859375 193.3125 129.121094 195.507812 129.171875 197.65625 Z M 109.617188 207.714844 L 116.207031 211.535156 C 113.105469 211.183594 110.191406 210.871094 107.945312 210.667969 C 108.640625 209.679688 109.183594 208.683594 109.617188 207.714844 Z M 100.886719 184.460938 L 100.96875 183.019531 L 104.949219 178.828125 L 102.824219 185.542969 C 102.167969 185.128906 101.523438 184.773438 100.886719 184.460938 Z M 100.394531 184.222656 C 100.253906 184.160156 100.121094 184.109375 99.992188 184.050781 L 100.433594 183.585938 Z M 103.257812 185.8125 L 105.734375 177.980469 L 113.285156 170.019531 C 115.652344 171.53125 117.578125 173.105469 119.050781 174.472656 L 104.605469 186.78125 C 104.152344 186.4375 103.699219 186.117188 103.257812 185.8125 Z M 106.089844 176.882812 L 109.011719 167.640625 C 110.402344 168.304688 111.683594 169.011719 112.851562 169.738281 Z M 105.292969 177.71875 L 101.007812 182.234375 L 101.917969 165.070312 C 104.34375 165.695312 106.550781 166.5 108.558594 167.429688 Z M 100.476562 182.808594 L 99.496094 183.835938 C 96.875 182.800781 94.449219 182.515625 92.390625 182.589844 L 95.597656 163.980469 C 97.652344 164.171875 99.589844 164.496094 101.414062 164.941406 Z M 78.824219 191.257812 L 78.25 190.417969 L 79.199219 190.609375 C 79.078125 190.824219 78.945312 191.035156 78.824219 191.257812 Z M 76.4375 200.09375 L 74.976562 199.8125 L 76.464844 199.492188 C 76.464844 199.691406 76.445312 199.894531 76.4375 200.09375 Z M 87.90625 183.324219 L 88.136719 179.585938 L 89.4375 182.929688 C 88.855469 183.050781 88.339844 183.191406 87.90625 183.324219 Z M 87.390625 183.496094 C 87.058594 183.617188 86.777344 183.71875 86.566406 183.808594 L 77.332031 167.550781 C 79.257812 166.53125 81.050781 165.796875 82.59375 165.261719 L 87.695312 178.445312 Z M 86.101562 184.019531 C 86.070312 184.027344 86.050781 184.039062 86.050781 184.039062 C 84.296875 185.039062 82.867188 186.1875 81.6875 187.40625 L 72.222656 170.824219 C 73.804688 169.617188 75.386719 168.617188 76.890625 167.792969 Z M 79.492188 190.148438 L 77.847656 189.824219 L 74.410156 184.84375 L 80.859375 188.304688 C 80.355469 188.90625 79.902344 189.523438 79.492188 190.148438 Z M 77.546875 190.277344 L 78.5625 191.761719 C 77.515625 193.824219 76.941406 195.914062 76.65625 197.816406 L 58.648438 190.289062 C 59.058594 189.078125 59.515625 187.917969 59.988281 186.8125 Z M 76.585938 198.339844 C 76.558594 198.554688 76.539062 198.765625 76.515625 198.964844 L 73.714844 199.570312 L 57.609375 196.507812 C 57.871094 193.453125 58.355469 191.335938 58.496094 190.773438 Z M 57.546875 203.613281 L 73.726562 200.09375 L 76.417969 200.609375 C 76.367188 202.605469 76.566406 204.148438 76.699219 204.871094 C 71.539062 206.191406 63.191406 208.328125 58.394531 209.550781 C 57.953125 207.492188 57.679688 205.496094 57.546875 203.613281 Z M 76.800781 205.355469 C 77.234375 206.597656 77.738281 207.703125 78.269531 208.722656 L 59.492188 213.460938 C 59.101562 212.3125 58.769531 211.160156 58.503906 210.035156 C 63.285156 208.8125 71.617188 206.675781 76.800781 205.355469 Z M 79.730469 211.070312 C 80.15625 211.667969 80.609375 212.21875 81.0625 212.722656 L 81.011719 212.855469 L 76.648438 214.589844 Z M 81.515625 213.199219 C 83.25 214.953125 85.164062 216.152344 87.070312 216.9375 L 76.375 232.085938 C 75.570312 231.691406 74.792969 231.28125 74.046875 230.855469 L 81.386719 213.25 Z M 93.25 218.359375 C 96.414062 218.582031 98.710938 218.066406 98.710938 218.066406 C 99.214844 217.824219 99.699219 217.582031 100.171875 217.332031 L 100.171875 235.582031 C 98.863281 235.84375 97.582031 236.015625 96.332031 236.117188 L 93.027344 219.253906 Z M 101.230469 216.726562 C 102.320312 216.082031 103.277344 215.394531 104.144531 214.699219 L 105.183594 220.566406 Z M 118.558594 212.320312 C 121.035156 212.613281 123.617188 212.925781 126.117188 213.238281 C 125.722656 214.214844 125.308594 215.144531 124.898438 216 Z M 117.457031 211.6875 L 109.816406 207.261719 C 110.292969 206.132812 110.605469 205.054688 110.816406 204.066406 L 115.484375 203.785156 L 127.949219 207.703125 C 127.488281 209.507812 126.921875 211.203125 126.308594 212.765625 C 123.527344 212.402344 120.441406 212.027344 117.457031 211.6875 Z M 128.222656 190.570312 L 121.558594 191.09375 L 127.082031 186.972656 C 127.546875 188.183594 127.921875 189.382812 128.222656 190.570312 Z M 107.320312 189.191406 C 106.542969 188.402344 105.765625 187.71875 105 187.101562 L 119.414062 174.828125 C 121.558594 176.882812 122.640625 178.40625 122.640625 178.40625 Z M 95.09375 163.941406 L 91.878906 182.597656 C 91.183594 182.636719 90.527344 182.730469 89.933594 182.828125 L 88.207031 178.363281 L 89.085938 163.882812 C 91.183594 163.769531 93.1875 163.789062 95.09375 163.941406 Z M 88.570312 163.933594 L 87.765625 177.246094 L 83.070312 165.109375 C 85.839844 164.203125 87.664062 163.992188 87.664062 163.992188 C 87.976562 163.960938 88.269531 163.953125 88.570312 163.933594 Z M 71.820312 171.136719 L 81.316406 187.777344 C 81.273438 187.820312 81.234375 187.871094 81.195312 187.910156 L 73.777344 183.9375 L 67.597656 174.988281 C 68.988281 173.515625 70.410156 172.246094 71.820312 171.136719 Z M 67.03125 225.554688 L 75.921875 215.414062 L 80.738281 213.5 L 73.613281 230.59375 C 71.054688 229.074219 68.867188 227.378906 67.03125 225.554688 Z M 76.839844 232.308594 L 87.5625 217.128906 C 89.214844 217.753906 90.839844 218.105469 92.320312 218.277344 L 92.511719 219.253906 L 88.339844 235.875 C 81.839844 234.957031 77.496094 232.628906 77.496094 232.628906 C 77.261719 232.53125 77.0625 232.410156 76.839844 232.308594 Z M 88.832031 235.9375 L 92.722656 220.40625 L 95.808594 236.148438 C 93.320312 236.320312 90.96875 236.207031 88.832031 235.9375 Z M 114.121094 229.253906 L 105.808594 221.171875 L 104.597656 214.328125 C 105.222656 213.792969 105.785156 213.25 106.300781 212.695312 C 110.050781 216.109375 114.957031 220.667969 119.261719 224.699219 C 117.570312 226.453125 115.84375 227.964844 114.121094 229.253906 Z M 231.695312 260.953125 L 223.832031 250.570312 L 233.609375 258.835938 Z M 243.949219 271.777344 L 252.265625 277.90625 L 242.367188 274.289062 C 242.699219 273.703125 243.253906 272.785156 243.949219 271.777344 Z M 268.320312 266.839844 L 267.980469 270.226562 C 267.273438 270.304688 266.617188 270.425781 266.023438 270.566406 L 264.914062 264.289062 Z M 264.441406 261.617188 L 263.613281 256.941406 C 265.660156 256.335938 267.617188 255.933594 269.449219 255.730469 L 268.53125 264.761719 C 267.019531 263.625 265.628906 262.554688 264.441406 261.617188 Z M 276.414062 315.015625 C 275.113281 315.441406 273.84375 315.78125 272.613281 316.035156 L 272.019531 313.636719 L 272.746094 307.40625 C 273.804688 307.296875 274.800781 307.09375 275.738281 306.84375 L 276.707031 308.382812 Z M 277.179688 309.152344 L 279.992188 313.65625 C 278.953125 314.109375 277.925781 314.503906 276.929688 314.84375 Z M 267.675781 307.316406 C 268.472656 307.425781 269.238281 307.476562 269.984375 307.507812 L 271.507812 313.675781 L 271.203125 316.296875 C 270.117188 316.476562 269.058594 316.589844 268.039062 316.648438 L 267.496094 307.265625 C 267.617188 307.296875 267.675781 307.316406 267.675781 307.316406 Z M 270.519531 307.519531 C 271.113281 307.519531 271.679688 307.496094 272.242188 307.457031 L 271.6875 312.246094 Z M 271.859375 315.066406 L 272.121094 316.125 C 271.988281 316.15625 271.859375 316.175781 271.726562 316.195312 Z M 277.070312 270.75 L 278.21875 268.742188 L 277.996094 271.34375 C 277.683594 271.140625 277.371094 270.949219 277.070312 270.75 Z M 276.253906 306.703125 C 276.433594 306.640625 276.617188 306.582031 276.789062 306.519531 L 276.746094 307.496094 Z M 284.035156 301.953125 C 286.433594 299.566406 287.753906 297.125 288.1875 296.257812 L 293.8125 301.15625 C 293.015625 302.550781 292.207031 303.796875 291.421875 304.867188 Z M 291.121094 305.289062 C 289.980469 306.824219 288.964844 307.980469 288.246094 308.738281 L 284.457031 302.667969 Z M 288.398438 295.765625 C 288.589844 295.230469 288.75 294.71875 288.914062 294.203125 L 296.703125 294.816406 C 295.949219 296.984375 295.042969 298.960938 294.074219 300.703125 Z M 289.042969 293.710938 C 289.316406 292.753906 289.519531 291.824219 289.667969 290.949219 L 297.972656 290.140625 C 297.683594 291.601562 297.308594 293.003906 296.875 294.324219 Z M 298.066406 289.628906 L 289.75 290.433594 C 290.023438 288.550781 290.023438 286.855469 289.851562 285.332031 L 298.578125 284.769531 C 298.527344 286.460938 298.347656 288.085938 298.066406 289.628906 Z M 298.597656 284.265625 L 289.78125 284.839844 C 289.628906 283.800781 289.398438 282.855469 289.09375 281.988281 L 298.425781 280.34375 C 298.570312 281.683594 298.617188 282.996094 298.597656 284.265625 Z M 288.933594 281.503906 C 288.5 280.355469 287.964844 279.355469 287.402344 278.511719 L 287.804688 278.015625 L 297.320312 274.539062 C 297.824219 276.363281 298.15625 278.128906 298.355469 279.851562 Z M 286.90625 277.804688 C 285.234375 275.566406 283.5 274.558594 283.5 274.558594 C 282.542969 274.054688 281.546875 273.5 280.546875 272.917969 L 281.867188 271.082031 L 292.109375 265.234375 C 293.15625 266.496094 294.011719 267.726562 294.699219 268.804688 L 287.5 277.59375 Z M 280.113281 272.65625 C 279.953125 272.554688 279.792969 272.460938 279.628906 272.363281 L 280.808594 271.6875 Z M 279.136719 272.058594 C 278.914062 271.929688 278.691406 271.789062 278.472656 271.644531 L 278.804688 267.707031 L 284.085938 258.511719 C 285.617188 259.359375 287.019531 260.328125 288.246094 261.355469 L 281.503906 270.699219 Z M 278.914062 266.515625 L 279.761719 256.660156 C 281.152344 257.09375 282.453125 257.636719 283.652344 258.273438 Z M 278.320312 267.554688 L 276.648438 270.476562 C 274.511719 269.078125 272.382812 267.585938 270.40625 266.144531 L 274.78125 255.679688 C 276.375 255.824219 277.867188 256.113281 279.265625 256.527344 Z M 272.96875 270.324219 C 271.414062 270.074219 269.996094 270.054688 268.722656 270.144531 L 269.683594 267.855469 Z M 268.59375 269.15625 L 268.796875 267.191406 L 269.269531 267.542969 Z M 263.714844 305.382812 L 258.929688 315.824219 C 256.871094 315.308594 255.058594 314.613281 253.515625 313.878906 L 259.804688 302.296875 C 261.246094 303.648438 262.578125 304.644531 263.714844 305.382812 Z M 241.882812 302.679688 C 241.128906 301.199219 240.542969 299.6875 240.101562 298.183594 C 242.960938 297.054688 248.144531 295.191406 252.800781 293.558594 C 252.992188 293.871094 253.183594 294.183594 253.382812 294.476562 L 248.605469 301.007812 Z M 248.144531 301.640625 L 244.445312 306.691406 C 243.535156 305.53125 242.769531 304.34375 242.117188 303.132812 Z M 239 291.984375 L 250.855469 290.65625 C 251.832031 292.066406 252.457031 293.003906 252.457031 293.003906 C 252.476562 293.042969 252.507812 293.074219 252.527344 293.113281 C 248.0625 294.675781 242.933594 296.511719 239.957031 297.710938 C 239.433594 295.765625 239.144531 293.839844 239 291.984375 Z M 239.605469 282.078125 L 246.359375 284.253906 C 246.730469 284.78125 247.105469 285.304688 247.476562 285.816406 L 238.972656 287.1875 C 239.082031 285.285156 239.324219 283.550781 239.605469 282.078125 Z M 249.574219 285.292969 L 249.957031 285.414062 L 249.695312 285.453125 Z M 251.015625 285.757812 L 254.441406 286.867188 C 254.382812 287.773438 254.363281 288.742188 254.390625 289.757812 L 252.972656 289.917969 L 250.027344 285.917969 Z M 254.484375 286.339844 L 252.113281 285.574219 L 254.605469 285.171875 C 254.554688 285.554688 254.511719 285.9375 254.484375 286.339844 Z M 254.421875 290.261719 C 254.453125 290.867188 254.503906 291.472656 254.574219 292.097656 L 253.3125 290.382812 Z M 253.675781 294.929688 C 254.695312 296.460938 255.703125 297.8125 256.691406 299 L 249.363281 300.824219 Z M 255.582031 280.34375 C 255.378906 281 254.957031 282.550781 254.675781 284.660156 L 251.066406 285.242188 L 249.070312 284.597656 L 241.984375 274.960938 C 241.984375 274.960938 242.035156 274.871094 242.117188 274.742188 L 253.71875 278.972656 Z M 240.867188 277.179688 C 241.964844 278.320312 243.890625 280.859375 245.855469 283.570312 L 239.695312 281.585938 C 240.242188 278.875 240.867188 277.179688 240.867188 277.179688 Z M 238.941406 287.703125 L 247.800781 286.269531 C 248.808594 287.703125 249.753906 289.0625 250.53125 290.183594 L 238.960938 291.472656 C 238.890625 290.171875 238.878906 288.910156 238.941406 287.703125 Z M 244.757812 307.105469 L 248.898438 301.449219 L 256.40625 299.585938 L 247.929688 310.371094 C 247.46875 309.976562 247.214844 309.734375 247.214844 309.734375 C 246.308594 308.886719 245.492188 308.011719 244.757812 307.105469 Z M 248.324219 310.683594 L 257.125 299.496094 C 257.910156 300.402344 258.675781 301.21875 259.421875 301.933594 L 253.0625 313.65625 C 250.90625 312.578125 249.300781 311.449219 248.324219 310.683594 Z M 259.421875 315.953125 L 264.148438 305.652344 C 265.386719 306.410156 266.367188 306.851562 266.980469 307.085938 L 267.535156 316.691406 C 264.542969 316.820312 261.820312 316.507812 259.421875 315.953125 Z M 287.238281 309.734375 C 284.902344 311.257812 282.632812 312.476562 280.457031 313.453125 L 277.210938 308.253906 L 277.292969 306.339844 C 279.902344 305.359375 282 303.878906 283.632812 302.328125 L 283.660156 302.335938 L 287.875 309.089844 C 287.480469 309.511719 287.238281 309.734375 287.238281 309.734375 Z M 297.179688 274.054688 L 288.429688 277.25 L 294.96875 269.257812 C 296.148438 271.191406 296.703125 272.542969 296.703125 272.542969 C 296.886719 273.046875 297.027344 273.550781 297.179688 274.054688 Z M 291.773438 264.84375 L 282.582031 270.09375 L 288.640625 261.699219 C 289.820312 262.714844 290.867188 263.785156 291.773438 264.84375 Z M 274.246094 255.632812 L 269.984375 265.832031 C 269.652344 265.589844 269.328125 265.347656 269.007812 265.105469 L 269.964844 255.679688 C 271.457031 255.550781 272.886719 255.539062 274.246094 255.632812 Z M 263.128906 257.082031 L 263.847656 261.144531 C 261.558594 259.339844 260.128906 258.128906 260.128906 258.128906 C 261.15625 257.71875 262.144531 257.382812 263.128906 257.082031 Z M 264.320312 263.84375 L 265.53125 270.6875 C 264.804688 270.878906 264.179688 271.101562 263.683594 271.292969 L 256.195312 259.863281 C 257.132812 259.351562 257.898438 259.039062 257.898438 259.039062 Z M 255.761719 260.117188 L 263.222656 271.496094 C 262.65625 271.746094 262.34375 271.9375 262.34375 271.9375 L 253.574219 261.757812 C 254.148438 261.132812 254.988281 260.570312 255.761719 260.117188 Z M 254.128906 278.589844 L 253.949219 278.519531 L 244.242188 271.363281 C 244.484375 271.023438 244.738281 270.667969 245.007812 270.324219 Z M 227.664062 162.378906 C 227.664062 162.378906 219.09375 156.535156 215.265625 150.183594 C 215.265625 150.183594 217.683594 148.773438 213.550781 145.347656 C 213.550781 145.347656 207 138.792969 205.992188 143.328125 C 205.992188 143.328125 201.757812 139.601562 203.472656 134.660156 C 203.472656 134.660156 203.371094 131.738281 208.3125 128.414062 C 208.3125 128.414062 210.730469 126.800781 213.148438 128.515625 C 213.148438 128.515625 216.476562 130.328125 217.484375 126.699219 C 217.484375 126.699219 217.886719 123.171875 221.109375 121.054688 C 221.109375 121.054688 222.925781 123.070312 223.832031 123.273438 C 223.832031 123.273438 222.019531 128.816406 227.863281 124.480469 C 227.863281 124.480469 232.398438 125.085938 231.695312 122.871094 C 231.695312 122.871094 230.785156 121.660156 233.207031 121.054688 C 233.207031 121.054688 235.828125 119.644531 237.742188 117.324219 C 237.742188 117.324219 240.464844 113.195312 248.726562 114.804688 C 248.726562 114.804688 256.1875 123.375 264.351562 127.304688 C 264.351562 127.304688 268.484375 129.621094 269.1875 133.148438 C 269.1875 133.148438 234.214844 156.535156 227.664062 162.378906 Z M 227.664062 162.378906 " fill-opacity="1" fill-rule="nonzero"/><path fill="#545454" d="M 180.605469 138.835938 L 156.253906 138.835938 L 161.070312 114.566406 L 185.511719 114.566406 Z M 180.605469 138.835938 " fill-opacity="1" fill-rule="nonzero"/><path fill="#545454" d="M 131.8125 138.835938 L 107.460938 138.835938 L 112.28125 114.566406 L 136.71875 114.566406 Z M 131.8125 138.835938 " fill-opacity="1" fill-rule="nonzero"/><g clip-path="url(#0b58f67ec9)"><path fill="#545454" d="M 170.796875 187.375 L 146.441406 187.375 L 151.347656 163.105469 L 175.703125 163.105469 Z M 170.796875 187.375 " fill-opacity="1" fill-rule="nonzero"/></g><path fill="#545454" d="M 200.140625 163.105469 L 175.703125 163.105469 L 180.605469 138.835938 L 204.960938 138.835938 Z M 200.140625 163.105469 " fill-opacity="1" fill-rule="nonzero"/><g clip-path="url(#93ce2cc6e8)"><path fill="#545454" d="M 209.863281 114.566406 L 185.511719 114.566406 L 190.414062 90.296875 L 214.769531 90.296875 Z M 209.863281 114.566406 " fill-opacity="1" fill-rule="nonzero"/></g><g clip-path="url(#78d89b0da1)"><path fill="#545454" d="M 161.070312 114.566406 L 136.71875 114.566406 L 141.621094 90.296875 L 165.976562 90.296875 Z M 161.070312 114.566406 " fill-opacity="1" fill-rule="nonzero"/></g><g clip-path="url(#f9e6b61175)"><path fill="#545454" d="M 112.28125 114.566406 L 87.925781 114.566406 L 92.832031 90.296875 L 117.183594 90.296875 Z M 112.28125 114.566406 " fill-opacity="1" fill-rule="nonzero"/></g></svg>